<?xml version="1.0" encoding="utf-8"?>
<!-- Generator: Adobe Illustrator 16.0.0, SVG Export Plug-In . SVG Version: 6.00 Build 0)  -->
<!DOCTYPE svg PUBLIC "-//W3C//DTD SVG 1.1//EN" "http://www.w3.org/Graphics/SVG/1.1/DTD/svg11.dtd" [
	<!ENTITY st0 "enable-background:new    ;">
	<!ENTITY st1 "fill-rule:evenodd;clip-rule:evenodd;fill:#FFFFFF;">
]>
<svg version="1.1" xmlns="http://www.w3.org/2000/svg" xmlns:xlink="http://www.w3.org/1999/xlink" x="0px" y="0px" width="297px"
	 height="56px" viewBox="0 0 297 56" style="enable-background:new 0 0 297 56;" xml:space="preserve">
<g id="矩形_16_1_" style="&st0;">
	<g id="矩形_16">
		<g>
			<path style="&st1;" d="M12,27v4h6v18h4V31v-4h-4H12z M60,27H45v4h15v5H49h-4v4v5v4h4h15v-4H49v-5h11h4v-4v-5v-4H60z"/>
		</g>
	</g>
</g>
<g id="矩形_17_1_" style="&st0;">
	<g id="矩形_17">
		<g>
			<polygon style="&st1;" points="96,27 81,27 81,31 96,31 96,36 81,36 81,40 96,40 96,45 81,45 81,49 96,49 100,49 100,45 100,40 
				100,36 100,31 100,27 			"/>
		</g>
	</g>
</g>
<g id="矩形_1_1_" style="&st0;">
	<g id="矩形_1">
		<g>
			<polygon style="&st1;" points="5,2 5,4 7,4 7,12 9,12 9,4 9,2 			"/>
		</g>
	</g>
</g>
<g id="矩形_2_1_" style="&st0;">
	<g id="矩形_2">
		<g>
			<polygon style="&st1;" points="30,2 24,2 24,4 30,4 30,6 26,6 24,6 24,8 24,10 24,12 26,12 32,12 32,10 26,10 26,8 30,8 32,8 
				32,6 32,4 32,2 			"/>
		</g>
	</g>
</g>
<g id="矩形_3_1_" style="&st0;">
	<g id="矩形_3">
		<g>
			<polygon style="&st1;" points="50,2 44,2 44,4 50,4 50,6 44,6 44,8 50,8 50,10 44,10 44,12 50,12 52,12 52,10 52,8 52,6 52,4 
				52,2 			"/>
		</g>
	</g>
</g>
<g id="矩形_4_1_" style="&st0;">
	<g id="矩形_4">
		<g>
			<polygon style="&st1;" points="69,2 69,6 65,6 65,2 63,2 63,6 63,8 65,8 69,8 69,12 71,12 71,8 71,6 71,2 			"/>
		</g>
	</g>
</g>
<g id="矩形_5_1_" style="&st0;">
	<g id="矩形_5">
		<g>
			<polygon style="&st1;" points="92,4 92,2 86,2 84,2 84,4 84,6 84,8 86,8 90,8 90,10 84,10 84,12 90,12 92,12 92,10 92,8 92,6 
				90,6 86,6 86,4 			"/>
		</g>
	</g>
</g>
<g id="矩形_6_1_" style="&st0;">
	<g id="矩形_6">
		<g>
			<path style="&st1;" d="M111,4V2h-6h-2v2v2v2v2v2h2h4h2v-2V8V6h-2h-4V4H111z M109,8v2h-4V8H109z"/>
		</g>
	</g>
</g>
<g id="矩形_7_1_" style="&st0;">
	<g id="矩形_7">
		<g>
			<polygon style="&st1;" points="130,2 124,2 124,4 130,4 130,12 132,12 132,4 132,2 			"/>
		</g>
	</g>
</g>
<g id="矩形_8_1_" style="&st0;">
	<g id="矩形_8">
		<g>
			<path style="&st1;" d="M150,2h-4h-2v2v2v2v2v2h2h4h2v-2V8V6V4V2H150z M150,10h-4V8h4V10z M150,6h-4V4h4V6z"/>
		</g>
	</g>
</g>
<g id="矩形_9_1_" style="&st0;">
	<g id="矩形_9">
		<g>
			<path style="&st1;" d="M169,2h-4h-2v2v2v2h2h4v2h-6v2h6h2v-2V8V6V4V2H169z M169,6h-4V4h4V6z"/>
		</g>
	</g>
</g>
<g id="矩形_10_1_" style="&st0;">
	<g id="矩形_10">
		<g>
			<path style="&st1;" d="M183,2v2h1v8h2V4V2h-2H183z M191,2h-2h-2v2v6v2h2h2h2v-2V4V2H191z M191,10h-2V4h2V10z"/>
		</g>
	</g>
</g>
<g id="矩形_11_1_" style="&st0;">
	<g id="矩形_11">
		<g>
			<path style="&st1;" d="M205,2v2h1v8h2V4V2h-2H205z M211,2h-1v2h1v8h2V4V2H211z"/>
		</g>
	</g>
</g>
<g id="矩形_12_1_" style="&st0;">
	<g id="矩形_12">
		<g>
			<path style="&st1;" d="M225,2v2h1v8h2V4V2h-2H225z M233,2h-4v2h4v2h-2h-2v2v2v2h2h4v-2h-4V8h2h2V6V4V2H233z"/>
		</g>
	</g>
</g>
<g id="矩形_13_1_" style="&st0;">
	<g id="矩形_13">
		<g>
			<path style="&st1;" d="M245,2v2h1v8h2V4V2h-2H245z M253,2h-4v2h4v2h-4v2h4v2h-4v2h4h2v-2V8V6V4V2H253z"/>
		</g>
	</g>
</g>
<g id="矩形_14_1_" style="&st0;">
	<g id="矩形_14">
		<g>
			<path style="&st1;" d="M265,2v2h1v8h2V4V2h-2H265z M273,2v4h-2V2h-2v4v2h2h2v4h2V8V6V2H273z"/>
		</g>
	</g>
</g>
<g id="矩形_15_1_" style="&st0;">
	<g id="矩形_15">
		<g>
			<path style="&st1;" d="M285,4h1v8h2V2h-3V4z M295,4V2h-6v6h4v2h-4v2h6V6h-4V4H295z"/>
		</g>
	</g>
</g>
</svg>
